<?xml version="1.0" encoding="utf-8"?>
<!-- Generator: Adobe Illustrator 18.1.1, SVG Export Plug-In . SVG Version: 6.00 Build 0)  -->
<svg version="1.1" id="Layer_1" xmlns="http://www.w3.org/2000/svg" xmlns:xlink="http://www.w3.org/1999/xlink" x="0px" y="0px"
	 viewBox="0 0 100 100" enable-background="new 0 0 100 100" xml:space="preserve">
<g>
	<path fill="#FFFFFF" d="M50,98.7c-27.2,0-49.4-22.1-49.4-49.4C0.6,22.1,22.8,0,50,0c27.2,0,49.4,22.1,49.4,49.4
		C99.4,76.6,77.2,98.7,50,98.7z M50,7.5C26.9,7.5,8.1,26.2,8.1,49.4c0,23.1,18.8,41.9,41.9,41.9c23.1,0,41.9-18.8,41.9-41.9
		C91.9,26.2,73.1,7.5,50,7.5z"/>
	<path fill="#FFFFFF" d="M69.6,38.9H63v7.7h6.6c2.6,0,4.3-1.5,4.3-3.8C73.9,40.4,72.2,38.9,69.6,38.9z M50,10.3
		c-21.6,0-39.1,17.5-39.1,39.1c0,21.6,17.5,39.1,39.1,39.1c21.6,0,39.1-17.5,39.1-39.1C89.1,27.8,71.6,10.3,50,10.3z M51.4,64.3
		c0,2.3-1.6,4-3.8,4c-2.3,0-3.8-1.6-3.8-4V49.7l-4.6,10.4c-1,2.4-2.2,3.3-4.2,3.3c-2,0-3.2-1-4.2-3.3l-4.6-10.5v14.7
		c0,2.3-1.6,4-3.8,4c-2.3,0-3.8-1.6-3.8-4V35.8c0-2.8,1.8-4.6,4.4-4.6c2.6,0,3.6,1.8,4.5,3.7l7.7,17.3l7.5-17.2
		c0.8-1.9,1.8-3.7,4.5-3.7c2.6,0,4.3,1.8,4.3,4.6V64.3z M77.9,68.3c-1.7,0-3.1-0.8-3.9-2.5l-6-11.8H63v10.1c0,2.5-1.7,4.2-4,4.2
		c-2.4,0-4-1.7-4-4.2v-29c0-2.2,1.5-3.7,3.7-3.7h11.2c7,0,12.1,4.8,12.1,11.4c0,4.2-2.1,7.8-5.8,9.8l5.1,9.6
		c0.4,0.7,0.6,1.5,0.6,2.3C81.8,66.7,80.2,68.3,77.9,68.3z"/>
</g>
</svg>
